<?xml version="1.0" encoding="UTF-8" standalone="no"?>
<svg
   width="1024"
   height="1024"
   viewBox="0 0 1024 1024"
   role="img"
   aria-label="Ghibli Gallery logo"
   version="1.1"
   id="svg44"
   xmlns="http://www.w3.org/2000/svg"
   xmlns:svg="http://www.w3.org/2000/svg">
  <defs
     id="defs7">
    <linearGradient
       id="silverFill"
       x1="0"
       y1="0"
       x2="0"
       y2="1">
      <stop
         offset="0"
         stop-color="#ffffff"
         id="stop1" />
      <stop
         offset="0.38"
         stop-color="#f4f8fb"
         id="stop2" />
      <stop
         offset="0.58"
         stop-color="#cfd9df"
         id="stop3" />
      <stop
         offset="0.78"
         stop-color="#ffffff"
         id="stop4" />
      <stop
         offset="1"
         stop-color="#aab7bf"
         id="stop5" />
    </linearGradient>
    <linearGradient
       id="silverStroke"
       x1="0"
       y1="0"
       x2="0"
       y2="1">
      <stop
         offset="0"
         stop-color="#ffffff"
         id="stop6" />
      <stop
         offset="1"
         stop-color="#7d8b94"
         id="stop7" />
    </linearGradient>
  </defs>
  <!-- Transparent background: intentionally no background rectangle. -->
  <g
     id="mascot"
     transform="translate(0 0) scale(1.0)"
     fill="none"
     stroke-linecap="round"
     stroke-linejoin="round">
    <g
       stroke="#00141d"
       stroke-opacity="0.28"
       stroke-width="14"
       transform="translate(7 9)"
       id="g20">
      <path
         d="M337 495 C347 373 407 282 512 282 C617 282 677 373 687 495"
         id="path7" />
      <path
         d="M431 295 C385 159 416 94 474 260"
         id="path8" />
      <path
         d="M593 260 C651 94 682 159 636 295"
         id="path9" />
      <path
         d="M388 410 C332 393 294 391 258 400"
         id="path10" />
      <path
         d="M390 438 C331 432 292 443 260 461"
         id="path11" />
      <path
         d="M636 410 C692 393 730 391 766 400"
         id="path12" />
      <path
         d="M634 438 C693 432 732 443 764 461"
         id="path13" />
      <path
         d="M390 503 C417 410 607 410 634 503"
         id="path14" />
      <path
         id="circle14"
         d="m 470,357 a 12,12 0 0 1 -12,12 12,12 0 0 1 -12,-12 12,12 0 0 1 12,-12 12,12 0 0 1 12,12 z" />
      <path
         id="circle15"
         d="m 578,357 a 12,12 0 0 1 -12,12 12,12 0 0 1 -12,-12 12,12 0 0 1 12,-12 12,12 0 0 1 12,12 z" />
      <path
         d="M500 382 C508 375 516 375 524 382 C518 390 506 390 500 382 Z"
         id="path15" />
      <path
         d="M444 461 Q463 438 482 461"
         id="path16" />
      <path
         d="M511 461 Q530 438 549 461"
         id="path17" />
      <path
         d="M578 461 Q597 438 616 461"
         id="path18" />
      <path
         d="M476 500 Q495 477 514 500"
         id="path19" />
      <path
         d="M544 500 Q563 477 582 500"
         id="path20" />
    </g>
    <g
       stroke="#f8fcff"
       stroke-width="11"
       id="g34">
      <path
         d="M337 495 C347 373 407 282 512 282 C617 282 677 373 687 495"
         id="path21" />
      <path
         d="M431 295 C385 159 416 94 474 260"
         id="path22" />
      <path
         d="M593 260 C651 94 682 159 636 295"
         id="path23" />
      <path
         d="M388 410 C332 393 294 391 258 400"
         id="path24" />
      <path
         d="M390 438 C331 432 292 443 260 461"
         id="path25" />
      <path
         d="M636 410 C692 393 730 391 766 400"
         id="path26" />
      <path
         d="M634 438 C693 432 732 443 764 461"
         id="path27" />
      <path
         d="M390 503 C417 410 607 410 634 503"
         id="path28" />
      <path
         id="circle28"
         d="m 470,357 a 12,12 0 0 1 -12,12 12,12 0 0 1 -12,-12 12,12 0 0 1 12,-12 12,12 0 0 1 12,12 z" />
      <path
         id="circle29"
         d="m 578,357 a 12,12 0 0 1 -12,12 12,12 0 0 1 -12,-12 12,12 0 0 1 12,-12 12,12 0 0 1 12,12 z" />
      <path
         d="M500 382 C508 375 516 375 524 382 C518 390 506 390 500 382 Z"
         fill="#f8fcff"
         stroke="none"
         id="path29" />
      <path
         d="M444 461 Q463 438 482 461"
         id="path30" />
      <path
         d="M511 461 Q530 438 549 461"
         id="path31" />
      <path
         d="M578 461 Q597 438 616 461"
         id="path32" />
      <path
         d="M476 500 Q495 477 514 500"
         id="path33" />
      <path
         d="M544 500 Q563 477 582 500"
         id="path34" />
    </g>
    <g
       stroke="#ffffff"
       stroke-width="3"
       opacity="0.55"
       id="g37">
      <path
         d="M350 493 C364 388 418 306 512 300 C606 306 660 388 674 493"
         id="path35" />
      <path
         d="M443 274 C420 191 429 142 463 238"
         id="path36" />
      <path
         d="M581 238 C615 142 624 191 601 274"
         id="path37" />
    </g>
  </g>
  <g
     id="wordmark"
     text-anchor="middle"
     font-family="Noto Serif Display"
     font-weight="500">
    <g
       fill="#00141d"
       opacity="0.32"
       transform="translate(8 12)"
       id="g39">
      <path
         d="m 231.19112,698.71 q -20.178,0 -33.516,-7.866 -13.338,-7.866 -20.007,-21.888 -6.498,-14.193 -6.498,-33.174 0,-18.468 6.498,-32.49 6.669,-14.193 19.836,-22.059 13.338,-8.037 33.516,-8.037 19.494,0 29.925,5.472 10.431,5.301 10.431,13.509 0,5.814 -4.275,9.234 -4.104,3.42 -13.338,3.762 0,-16.245 -5.472,-23.256 -5.301,-7.011 -18.297,-7.011 -13.167,0 -21.375,6.156 -8.208,6.156 -11.97,19.665 -3.762,13.338 -3.762,35.055 0,21.888 4.104,35.397 4.275,13.338 13.167,19.665 9.063,6.156 23.769,6.156 4.446,0 8.55,-0.684 4.275,-0.684 7.695,-1.539 v -41.04 q 0,-11.799 -13.509,-11.799 h -1.026 v -1.71 h 47.025 v 1.71 h -1.197 q -6.327,0 -8.892,3.078 -2.394,2.907 -2.394,9.405 v 36.081 q -9.063,4.104 -18.468,6.156 -9.234,2.052 -20.52,2.052 z M 310.40913,697 v -1.71 h 3.591 q 5.985,0 9.234,-2.736 3.249,-2.736 3.249,-9.234 v -95.247 q 0,-6.156 -3.249,-8.721 -3.249,-2.736 -9.234,-2.736 h -3.591 v -1.71 h 52.326 v 1.71 h -3.591 q -6.156,0 -9.405,2.736 -3.249,2.736 -3.249,9.234 v 43.776 h 52.326 v -43.776 q 0,-6.498 -3.249,-9.234 -3.078,-2.736 -9.234,-2.736 h -3.591 v -1.71 h 52.326 v 1.71 h -3.591 q -5.985,0 -9.405,2.736 -3.249,2.565 -3.249,8.721 v 95.247 q 0,6.498 3.249,9.234 3.42,2.736 9.405,2.736 h 3.591 V 697 h -52.326 v -1.71 h 3.591 q 6.156,0 9.234,-2.736 3.249,-2.736 3.249,-9.234 v -49.248 h -52.326 v 49.248 q 0,6.498 3.249,9.234 3.249,2.736 9.405,2.736 h 3.591 V 697 Z m 154.62885,0 v -1.71 h 3.591 q 6.156,0 9.405,-2.736 3.249,-2.736 3.249,-9.234 v -95.247 q 0,-6.156 -3.249,-8.721 -3.249,-2.736 -9.405,-2.736 h -3.591 v -1.71 h 52.326 v 1.71 h -3.591 q -6.156,0 -9.405,2.736 -3.078,2.736 -3.078,9.234 v 94.734 q 0,6.498 3.078,9.234 3.249,2.736 9.405,2.736 h 3.591 V 697 Z m 82.29593,0 v -1.71 h 3.591 q 5.985,0 9.234,-2.736 3.42,-2.736 3.42,-9.234 v -95.247 q 0,-6.156 -3.42,-8.721 -3.249,-2.736 -9.234,-2.736 h -3.591 v -1.71 h 47.025 q 45.315,0 45.315,29.412 0,25.479 -34.029,28.044 v 0.342 q 20.349,0.684 29.754,9.063 9.405,8.208 9.405,22.401 0,32.832 -45.315,32.832 z m 46.512,-64.809 q 13.338,0 18.981,-6.156 5.643,-6.327 5.643,-20.862 0,-15.39 -5.814,-21.888 -5.643,-6.669 -19.152,-6.669 h -10.089 v 55.575 z m 4.788,63.099 q 13.509,0 19.152,-7.011 5.814,-7.182 5.814,-23.94 0,-16.416 -5.643,-23.427 -5.643,-7.011 -18.981,-7.011 h -15.561 v 61.389 z m 79.38906,1.71 v -1.71 h 3.591 q 6.156,0 9.405,-2.736 3.249,-2.736 3.249,-9.234 v -95.247 q 0,-6.156 -3.249,-8.721 -3.249,-2.736 -9.405,-2.736 h -3.591 v -1.71 h 52.326 v 1.71 h -3.591 q -6.156,0 -9.405,2.736 -3.078,2.736 -3.078,9.063 V 695.29 h 29.754 q 9.405,0 15.048,-2.736 5.814,-2.736 8.55,-8.892 2.736,-6.327 3.42,-17.271 l 0.513,-6.498 h 1.71 l -1.197,37.107 z m 126.07202,0 v -1.71 h 3.591 q 6.156,0 9.405,-2.736 3.249,-2.736 3.249,-9.234 v -95.247 q 0,-6.156 -3.249,-8.721 -3.249,-2.736 -9.405,-2.736 h -3.591 v -1.71 h 52.326 v 1.71 h -3.591 q -6.156,0 -9.405,2.736 -3.078,2.736 -3.078,9.234 v 94.734 q 0,6.498 3.078,9.234 3.249,2.736 9.405,2.736 h 3.591 V 697 Z"
         id="text37"
         style="font-size:171px;letter-spacing:18;opacity:0.1024"
         aria-label="GHIBLI" />
      <path
         d="m 285.05002,817.75 q -8.85,0 -14.7,-3.45 -5.85,-3.45 -8.775,-9.6 -2.85,-6.225 -2.85,-14.55 0,-8.1 2.85,-14.25 2.925,-6.225 8.7,-9.675 5.85,-3.525 14.7,-3.525 8.55,0 13.125,2.4 4.575,2.325 4.575,5.925 0,2.55 -1.875,4.05 -1.8,1.5 -5.85,1.65 0,-7.125 -2.4,-10.2 -2.325,-3.075 -8.025,-3.075 -5.775,0 -9.375,2.7 -3.6,2.7 -5.25,8.625 -1.65,5.85 -1.65,15.375 0,9.6 1.8,15.525 1.875,5.85 5.775,8.625 3.975,2.7 10.425,2.7 1.95,0 3.75,-0.3 1.875,-0.3 3.375,-0.675 v -18 q 0,-5.175 -5.925,-5.175 h -0.45 v -0.75 h 20.625 v 0.75 h -0.525 q -2.775,0 -3.9,1.35 -1.05,1.275 -1.05,4.125 v 15.825 q -3.975,1.8 -8.1,2.7 -4.05,0.9 -9,0.9 z m 52.225,-0.75 v -0.75 h 2.4 q 2.325,0 3.675,-1.2 1.35,-1.275 2.475,-4.575 l 16.65,-47.025 h 4.8 l 18.225,48.45 q 0.975,2.475 1.95,3.45 1.05,0.9 2.85,0.9 h 0.75 V 817 h -21.75 v -0.75 h 2.4 q 2.55,0 3.675,-0.6 1.125,-0.675 1.125,-2.325 0,-0.6 -0.15,-1.425 -0.15,-0.9 -0.525,-1.95 l -4.5,-12.45 h -20.025 l -4.2,11.775 q -0.825,2.25 -0.825,3.6 0,1.875 1.5,2.625 1.575,0.75 5.025,0.75 h 2.7 V 817 Z m 14.25,-20.25 h 19.5 l -5.25,-14.4 q -2.7,-7.35 -4.425,-13.65 -1.05,3.15 -2.1,6 -0.975,2.85 -2.25,6.525 z M 421.67506,817 v -0.75 h 1.575 q 2.7,0 4.125,-1.2 1.425,-1.2 1.425,-4.05 v -41.775 q 0,-2.7 -1.425,-3.825 -1.425,-1.2 -4.125,-1.2 h -1.575 v -0.75 h 22.95 v 0.75 h -1.575 q -2.7,0 -4.125,1.2 -1.35,1.2 -1.35,3.975 v 46.875 h 13.05 q 4.125,0 6.6,-1.2 2.55,-1.2 3.75,-3.9 1.2,-2.775 1.5,-7.575 l 0.225,-2.85 h 0.75 l -0.525,16.275 z m 75.39999,0 v -0.75 h 1.575 q 2.7,0 4.125,-1.2 1.425,-1.2 1.425,-4.05 v -41.775 q 0,-2.7 -1.425,-3.825 -1.425,-1.2 -4.125,-1.2 h -1.575 v -0.75 h 22.95 v 0.75 h -1.575 q -2.7,0 -4.125,1.2 -1.35,1.2 -1.35,3.975 v 46.875 h 13.05 q 4.125,0 6.6,-1.2 2.55,-1.2 3.75,-3.9 1.2,-2.775 1.5,-7.575 l 0.225,-2.85 h 0.75 l -0.525,16.275 z m 75.40001,0 v -0.75 h 1.575 q 2.625,0 4.05,-1.2 1.5,-1.2 1.5,-3.975 v -41.85 q 0,-2.7 -1.425,-3.825 -1.425,-1.2 -4.125,-1.2 h -1.575 v -0.75 h 38.775 l 0.45,13.275 h -0.75 l -0.15,-2.475 q -0.375,-5.625 -2.775,-7.8 -2.4,-2.25 -8.175,-2.25 h -11.475 v 24.375 h 18.525 v 0.75 h -18.525 v 26.925 h 13.5 q 6.075,0 8.55,-2.175 2.55,-2.25 2.925,-7.875 l 0.15,-2.475 h 0.75 l -0.525,13.275 z m 75.32505,0 v -0.75 h 1.575 q 2.625,0 4.05,-1.2 1.5,-1.2 1.5,-3.975 V 769.15 q 0,-2.625 -1.5,-3.75 -1.425,-1.2 -4.05,-1.2 h -1.575 v -0.75 h 21.3 q 9.975,0 14.775,3.6 4.875,3.6 4.875,10.35 0,4.275 -1.725,7.125 -1.725,2.775 -4.425,4.425 -2.625,1.65 -5.55,2.475 l 9.9,15.9 q 2.325,3.6 3.75,5.55 1.5,1.95 2.625,2.7 1.125,0.675 2.325,0.675 h 0.225 V 817 h -1.5 q -4.65,0 -7.35,-0.45 -2.7,-0.525 -4.5,-1.95 -1.725,-1.5 -3.45,-4.425 l -11.025,-18.15 h -4.425 v 19.05 q 0,2.775 1.425,3.975 1.425,1.2 4.125,1.2 h 1.575 V 817 Z m 20.85,-25.725 q 5.775,0 8.25,-3.075 2.55,-3.15 2.55,-10.275 0,-7.35 -2.55,-10.5 -2.55,-3.225 -8.4,-3.225 h -4.875 v 27.075 z M 733.17505,817 v -0.75 h 2.25 q 2.7,0 4.125,-1.125 1.5,-1.2 1.5,-4.05 v -16.8 l -13.725,-26.1 q -1.2,-2.25 -2.325,-3.075 -1.05,-0.9 -2.775,-0.9 h -1.35 v -0.75 h 21.9 v 0.75 h -2.475 q -3.825,0 -3.825,2.175 0,1.5 1.5,4.5 l 6.75,13.2 q 1.5,2.775 2.625,5.175 1.2,2.4 2.1,4.35 0.975,-2.025 2.25,-4.65 1.35,-2.7 2.775,-5.475 l 5.625,-11.325 q 1.8,-3.45 1.8,-5.25 0,-1.5 -1.275,-2.1 -1.2,-0.6 -3.825,-0.6 h -3.6 v -0.75 h 16.8 v 0.75 h -1.95 q -1.8,0 -3.075,1.275 -1.275,1.275 -2.925,4.575 l -12.225,24.3 v 16.725 q 0,2.85 1.425,4.05 1.5,1.125 4.2,1.125 h 2.25 V 817 Z"
         id="text38"
         style="font-size:75px;letter-spacing:28;opacity:0.1024"
         aria-label="GALLERY" />
      <path
         id="rect38"
         d="m 145,782 h 76 c 1.662,0 3,1.338 3,3 0,1.662 -1.338,3 -3,3 h -76 c -1.662,0 -3,-1.338 -3,-3 0,-1.662 1.338,-3 3,-3 z" />
      <path
         id="rect39"
         d="m 803,782 h 76 c 1.662,0 3,1.338 3,3 0,1.662 -1.338,3 -3,3 h -76 c -1.662,0 -3,-1.338 -3,-3 0,-1.662 1.338,-3 3,-3 z" />
    </g>
    <g
       fill="#7e8990"
       opacity="0.75"
       transform="translate(3 5)"
       id="g41">
      <path
         d="m 231.19112,698.71 q -20.178,0 -33.516,-7.866 -13.338,-7.866 -20.007,-21.888 -6.498,-14.193 -6.498,-33.174 0,-18.468 6.498,-32.49 6.669,-14.193 19.836,-22.059 13.338,-8.037 33.516,-8.037 19.494,0 29.925,5.472 10.431,5.301 10.431,13.509 0,5.814 -4.275,9.234 -4.104,3.42 -13.338,3.762 0,-16.245 -5.472,-23.256 -5.301,-7.011 -18.297,-7.011 -13.167,0 -21.375,6.156 -8.208,6.156 -11.97,19.665 -3.762,13.338 -3.762,35.055 0,21.888 4.104,35.397 4.275,13.338 13.167,19.665 9.063,6.156 23.769,6.156 4.446,0 8.55,-0.684 4.275,-0.684 7.695,-1.539 v -41.04 q 0,-11.799 -13.509,-11.799 h -1.026 v -1.71 h 47.025 v 1.71 h -1.197 q -6.327,0 -8.892,3.078 -2.394,2.907 -2.394,9.405 v 36.081 q -9.063,4.104 -18.468,6.156 -9.234,2.052 -20.52,2.052 z M 310.40913,697 v -1.71 h 3.591 q 5.985,0 9.234,-2.736 3.249,-2.736 3.249,-9.234 v -95.247 q 0,-6.156 -3.249,-8.721 -3.249,-2.736 -9.234,-2.736 h -3.591 v -1.71 h 52.326 v 1.71 h -3.591 q -6.156,0 -9.405,2.736 -3.249,2.736 -3.249,9.234 v 43.776 h 52.326 v -43.776 q 0,-6.498 -3.249,-9.234 -3.078,-2.736 -9.234,-2.736 h -3.591 v -1.71 h 52.326 v 1.71 h -3.591 q -5.985,0 -9.405,2.736 -3.249,2.565 -3.249,8.721 v 95.247 q 0,6.498 3.249,9.234 3.42,2.736 9.405,2.736 h 3.591 V 697 h -52.326 v -1.71 h 3.591 q 6.156,0 9.234,-2.736 3.249,-2.736 3.249,-9.234 v -49.248 h -52.326 v 49.248 q 0,6.498 3.249,9.234 3.249,2.736 9.405,2.736 h 3.591 V 697 Z m 154.62885,0 v -1.71 h 3.591 q 6.156,0 9.405,-2.736 3.249,-2.736 3.249,-9.234 v -95.247 q 0,-6.156 -3.249,-8.721 -3.249,-2.736 -9.405,-2.736 h -3.591 v -1.71 h 52.326 v 1.71 h -3.591 q -6.156,0 -9.405,2.736 -3.078,2.736 -3.078,9.234 v 94.734 q 0,6.498 3.078,9.234 3.249,2.736 9.405,2.736 h 3.591 V 697 Z m 82.29593,0 v -1.71 h 3.591 q 5.985,0 9.234,-2.736 3.42,-2.736 3.42,-9.234 v -95.247 q 0,-6.156 -3.42,-8.721 -3.249,-2.736 -9.234,-2.736 h -3.591 v -1.71 h 47.025 q 45.315,0 45.315,29.412 0,25.479 -34.029,28.044 v 0.342 q 20.349,0.684 29.754,9.063 9.405,8.208 9.405,22.401 0,32.832 -45.315,32.832 z m 46.512,-64.809 q 13.338,0 18.981,-6.156 5.643,-6.327 5.643,-20.862 0,-15.39 -5.814,-21.888 -5.643,-6.669 -19.152,-6.669 h -10.089 v 55.575 z m 4.788,63.099 q 13.509,0 19.152,-7.011 5.814,-7.182 5.814,-23.94 0,-16.416 -5.643,-23.427 -5.643,-7.011 -18.981,-7.011 h -15.561 v 61.389 z m 79.38906,1.71 v -1.71 h 3.591 q 6.156,0 9.405,-2.736 3.249,-2.736 3.249,-9.234 v -95.247 q 0,-6.156 -3.249,-8.721 -3.249,-2.736 -9.405,-2.736 h -3.591 v -1.71 h 52.326 v 1.71 h -3.591 q -6.156,0 -9.405,2.736 -3.078,2.736 -3.078,9.063 V 695.29 h 29.754 q 9.405,0 15.048,-2.736 5.814,-2.736 8.55,-8.892 2.736,-6.327 3.42,-17.271 l 0.513,-6.498 h 1.71 l -1.197,37.107 z m 126.07202,0 v -1.71 h 3.591 q 6.156,0 9.405,-2.736 3.249,-2.736 3.249,-9.234 v -95.247 q 0,-6.156 -3.249,-8.721 -3.249,-2.736 -9.405,-2.736 h -3.591 v -1.71 h 52.326 v 1.71 h -3.591 q -6.156,0 -9.405,2.736 -3.078,2.736 -3.078,9.234 v 94.734 q 0,6.498 3.078,9.234 3.249,2.736 9.405,2.736 h 3.591 V 697 Z"
         id="text39"
         style="font-size:171px;letter-spacing:18;opacity:0.5625"
         aria-label="GHIBLI" />
      <path
         d="m 285.05002,817.75 q -8.85,0 -14.7,-3.45 -5.85,-3.45 -8.775,-9.6 -2.85,-6.225 -2.85,-14.55 0,-8.1 2.85,-14.25 2.925,-6.225 8.7,-9.675 5.85,-3.525 14.7,-3.525 8.55,0 13.125,2.4 4.575,2.325 4.575,5.925 0,2.55 -1.875,4.05 -1.8,1.5 -5.85,1.65 0,-7.125 -2.4,-10.2 -2.325,-3.075 -8.025,-3.075 -5.775,0 -9.375,2.7 -3.6,2.7 -5.25,8.625 -1.65,5.85 -1.65,15.375 0,9.6 1.8,15.525 1.875,5.85 5.775,8.625 3.975,2.7 10.425,2.7 1.95,0 3.75,-0.3 1.875,-0.3 3.375,-0.675 v -18 q 0,-5.175 -5.925,-5.175 h -0.45 v -0.75 h 20.625 v 0.75 h -0.525 q -2.775,0 -3.9,1.35 -1.05,1.275 -1.05,4.125 v 15.825 q -3.975,1.8 -8.1,2.7 -4.05,0.9 -9,0.9 z m 52.225,-0.75 v -0.75 h 2.4 q 2.325,0 3.675,-1.2 1.35,-1.275 2.475,-4.575 l 16.65,-47.025 h 4.8 l 18.225,48.45 q 0.975,2.475 1.95,3.45 1.05,0.9 2.85,0.9 h 0.75 V 817 h -21.75 v -0.75 h 2.4 q 2.55,0 3.675,-0.6 1.125,-0.675 1.125,-2.325 0,-0.6 -0.15,-1.425 -0.15,-0.9 -0.525,-1.95 l -4.5,-12.45 h -20.025 l -4.2,11.775 q -0.825,2.25 -0.825,3.6 0,1.875 1.5,2.625 1.575,0.75 5.025,0.75 h 2.7 V 817 Z m 14.25,-20.25 h 19.5 l -5.25,-14.4 q -2.7,-7.35 -4.425,-13.65 -1.05,3.15 -2.1,6 -0.975,2.85 -2.25,6.525 z M 421.67506,817 v -0.75 h 1.575 q 2.7,0 4.125,-1.2 1.425,-1.2 1.425,-4.05 v -41.775 q 0,-2.7 -1.425,-3.825 -1.425,-1.2 -4.125,-1.2 h -1.575 v -0.75 h 22.95 v 0.75 h -1.575 q -2.7,0 -4.125,1.2 -1.35,1.2 -1.35,3.975 v 46.875 h 13.05 q 4.125,0 6.6,-1.2 2.55,-1.2 3.75,-3.9 1.2,-2.775 1.5,-7.575 l 0.225,-2.85 h 0.75 l -0.525,16.275 z m 75.39999,0 v -0.75 h 1.575 q 2.7,0 4.125,-1.2 1.425,-1.2 1.425,-4.05 v -41.775 q 0,-2.7 -1.425,-3.825 -1.425,-1.2 -4.125,-1.2 h -1.575 v -0.75 h 22.95 v 0.75 h -1.575 q -2.7,0 -4.125,1.2 -1.35,1.2 -1.35,3.975 v 46.875 h 13.05 q 4.125,0 6.6,-1.2 2.55,-1.2 3.75,-3.9 1.2,-2.775 1.5,-7.575 l 0.225,-2.85 h 0.75 l -0.525,16.275 z m 75.40001,0 v -0.75 h 1.575 q 2.625,0 4.05,-1.2 1.5,-1.2 1.5,-3.975 v -41.85 q 0,-2.7 -1.425,-3.825 -1.425,-1.2 -4.125,-1.2 h -1.575 v -0.75 h 38.775 l 0.45,13.275 h -0.75 l -0.15,-2.475 q -0.375,-5.625 -2.775,-7.8 -2.4,-2.25 -8.175,-2.25 h -11.475 v 24.375 h 18.525 v 0.75 h -18.525 v 26.925 h 13.5 q 6.075,0 8.55,-2.175 2.55,-2.25 2.925,-7.875 l 0.15,-2.475 h 0.75 l -0.525,13.275 z m 75.32505,0 v -0.75 h 1.575 q 2.625,0 4.05,-1.2 1.5,-1.2 1.5,-3.975 V 769.15 q 0,-2.625 -1.5,-3.75 -1.425,-1.2 -4.05,-1.2 h -1.575 v -0.75 h 21.3 q 9.975,0 14.775,3.6 4.875,3.6 4.875,10.35 0,4.275 -1.725,7.125 -1.725,2.775 -4.425,4.425 -2.625,1.65 -5.55,2.475 l 9.9,15.9 q 2.325,3.6 3.75,5.55 1.5,1.95 2.625,2.7 1.125,0.675 2.325,0.675 h 0.225 V 817 h -1.5 q -4.65,0 -7.35,-0.45 -2.7,-0.525 -4.5,-1.95 -1.725,-1.5 -3.45,-4.425 l -11.025,-18.15 h -4.425 v 19.05 q 0,2.775 1.425,3.975 1.425,1.2 4.125,1.2 h 1.575 V 817 Z m 20.85,-25.725 q 5.775,0 8.25,-3.075 2.55,-3.15 2.55,-10.275 0,-7.35 -2.55,-10.5 -2.55,-3.225 -8.4,-3.225 h -4.875 v 27.075 z M 733.17505,817 v -0.75 h 2.25 q 2.7,0 4.125,-1.125 1.5,-1.2 1.5,-4.05 v -16.8 l -13.725,-26.1 q -1.2,-2.25 -2.325,-3.075 -1.05,-0.9 -2.775,-0.9 h -1.35 v -0.75 h 21.9 v 0.75 h -2.475 q -3.825,0 -3.825,2.175 0,1.5 1.5,4.5 l 6.75,13.2 q 1.5,2.775 2.625,5.175 1.2,2.4 2.1,4.35 0.975,-2.025 2.25,-4.65 1.35,-2.7 2.775,-5.475 l 5.625,-11.325 q 1.8,-3.45 1.8,-5.25 0,-1.5 -1.275,-2.1 -1.2,-0.6 -3.825,-0.6 h -3.6 v -0.75 h 16.8 v 0.75 h -1.95 q -1.8,0 -3.075,1.275 -1.275,1.275 -2.925,4.575 l -12.225,24.3 v 16.725 q 0,2.85 1.425,4.05 1.5,1.125 4.2,1.125 h 2.25 V 817 Z"
         id="text40"
         style="font-size:75px;letter-spacing:28;opacity:0.5625"
         aria-label="GALLERY" />
      <path
         id="rect40"
         d="m 145,782 h 76 c 1.662,0 3,1.338 3,3 0,1.662 -1.338,3 -3,3 h -76 c -1.662,0 -3,-1.338 -3,-3 0,-1.662 1.338,-3 3,-3 z" />
      <path
         id="rect41"
         d="m 803,782 h 76 c 1.662,0 3,1.338 3,3 0,1.662 -1.338,3 -3,3 h -76 c -1.662,0 -3,-1.338 -3,-3 0,-1.662 1.338,-3 3,-3 z" />
    </g>
    <g
       fill="url(#silverFill)"
       stroke="url(#silverStroke)"
       stroke-width="2.1"
       id="g43">
      <path
         d="m 231.19112,698.71 q -20.178,0 -33.516,-7.866 -13.338,-7.866 -20.007,-21.888 -6.498,-14.193 -6.498,-33.174 0,-18.468 6.498,-32.49 6.669,-14.193 19.836,-22.059 13.338,-8.037 33.516,-8.037 19.494,0 29.925,5.472 10.431,5.301 10.431,13.509 0,5.814 -4.275,9.234 -4.104,3.42 -13.338,3.762 0,-16.245 -5.472,-23.256 -5.301,-7.011 -18.297,-7.011 -13.167,0 -21.375,6.156 -8.208,6.156 -11.97,19.665 -3.762,13.338 -3.762,35.055 0,21.888 4.104,35.397 4.275,13.338 13.167,19.665 9.063,6.156 23.769,6.156 4.446,0 8.55,-0.684 4.275,-0.684 7.695,-1.539 v -41.04 q 0,-11.799 -13.509,-11.799 h -1.026 v -1.71 h 47.025 v 1.71 h -1.197 q -6.327,0 -8.892,3.078 -2.394,2.907 -2.394,9.405 v 36.081 q -9.063,4.104 -18.468,6.156 -9.234,2.052 -20.52,2.052 z M 310.40913,697 v -1.71 h 3.591 q 5.985,0 9.234,-2.736 3.249,-2.736 3.249,-9.234 v -95.247 q 0,-6.156 -3.249,-8.721 -3.249,-2.736 -9.234,-2.736 h -3.591 v -1.71 h 52.326 v 1.71 h -3.591 q -6.156,0 -9.405,2.736 -3.249,2.736 -3.249,9.234 v 43.776 h 52.326 v -43.776 q 0,-6.498 -3.249,-9.234 -3.078,-2.736 -9.234,-2.736 h -3.591 v -1.71 h 52.326 v 1.71 h -3.591 q -5.985,0 -9.405,2.736 -3.249,2.565 -3.249,8.721 v 95.247 q 0,6.498 3.249,9.234 3.42,2.736 9.405,2.736 h 3.591 V 697 h -52.326 v -1.71 h 3.591 q 6.156,0 9.234,-2.736 3.249,-2.736 3.249,-9.234 v -49.248 h -52.326 v 49.248 q 0,6.498 3.249,9.234 3.249,2.736 9.405,2.736 h 3.591 V 697 Z m 154.62885,0 v -1.71 h 3.591 q 6.156,0 9.405,-2.736 3.249,-2.736 3.249,-9.234 v -95.247 q 0,-6.156 -3.249,-8.721 -3.249,-2.736 -9.405,-2.736 h -3.591 v -1.71 h 52.326 v 1.71 h -3.591 q -6.156,0 -9.405,2.736 -3.078,2.736 -3.078,9.234 v 94.734 q 0,6.498 3.078,9.234 3.249,2.736 9.405,2.736 h 3.591 V 697 Z m 82.29593,0 v -1.71 h 3.591 q 5.985,0 9.234,-2.736 3.42,-2.736 3.42,-9.234 v -95.247 q 0,-6.156 -3.42,-8.721 -3.249,-2.736 -9.234,-2.736 h -3.591 v -1.71 h 47.025 q 45.315,0 45.315,29.412 0,25.479 -34.029,28.044 v 0.342 q 20.349,0.684 29.754,9.063 9.405,8.208 9.405,22.401 0,32.832 -45.315,32.832 z m 46.512,-64.809 q 13.338,0 18.981,-6.156 5.643,-6.327 5.643,-20.862 0,-15.39 -5.814,-21.888 -5.643,-6.669 -19.152,-6.669 h -10.089 v 55.575 z m 4.788,63.099 q 13.509,0 19.152,-7.011 5.814,-7.182 5.814,-23.94 0,-16.416 -5.643,-23.427 -5.643,-7.011 -18.981,-7.011 h -15.561 v 61.389 z m 79.38906,1.71 v -1.71 h 3.591 q 6.156,0 9.405,-2.736 3.249,-2.736 3.249,-9.234 v -95.247 q 0,-6.156 -3.249,-8.721 -3.249,-2.736 -9.405,-2.736 h -3.591 v -1.71 h 52.326 v 1.71 h -3.591 q -6.156,0 -9.405,2.736 -3.078,2.736 -3.078,9.063 V 695.29 h 29.754 q 9.405,0 15.048,-2.736 5.814,-2.736 8.55,-8.892 2.736,-6.327 3.42,-17.271 l 0.513,-6.498 h 1.71 l -1.197,37.107 z m 126.07202,0 v -1.71 h 3.591 q 6.156,0 9.405,-2.736 3.249,-2.736 3.249,-9.234 v -95.247 q 0,-6.156 -3.249,-8.721 -3.249,-2.736 -9.405,-2.736 h -3.591 v -1.71 h 52.326 v 1.71 h -3.591 q -6.156,0 -9.405,2.736 -3.078,2.736 -3.078,9.234 v 94.734 q 0,6.498 3.078,9.234 3.249,2.736 9.405,2.736 h 3.591 V 697 Z"
         id="text41"
         style="font-size:171px;letter-spacing:18"
         aria-label="GHIBLI" />
      <path
         d="m 285.05002,817.75 q -8.85,0 -14.7,-3.45 -5.85,-3.45 -8.775,-9.6 -2.85,-6.225 -2.85,-14.55 0,-8.1 2.85,-14.25 2.925,-6.225 8.7,-9.675 5.85,-3.525 14.7,-3.525 8.55,0 13.125,2.4 4.575,2.325 4.575,5.925 0,2.55 -1.875,4.05 -1.8,1.5 -5.85,1.65 0,-7.125 -2.4,-10.2 -2.325,-3.075 -8.025,-3.075 -5.775,0 -9.375,2.7 -3.6,2.7 -5.25,8.625 -1.65,5.85 -1.65,15.375 0,9.6 1.8,15.525 1.875,5.85 5.775,8.625 3.975,2.7 10.425,2.7 1.95,0 3.75,-0.3 1.875,-0.3 3.375,-0.675 v -18 q 0,-5.175 -5.925,-5.175 h -0.45 v -0.75 h 20.625 v 0.75 h -0.525 q -2.775,0 -3.9,1.35 -1.05,1.275 -1.05,4.125 v 15.825 q -3.975,1.8 -8.1,2.7 -4.05,0.9 -9,0.9 z m 52.225,-0.75 v -0.75 h 2.4 q 2.325,0 3.675,-1.2 1.35,-1.275 2.475,-4.575 l 16.65,-47.025 h 4.8 l 18.225,48.45 q 0.975,2.475 1.95,3.45 1.05,0.9 2.85,0.9 h 0.75 V 817 h -21.75 v -0.75 h 2.4 q 2.55,0 3.675,-0.6 1.125,-0.675 1.125,-2.325 0,-0.6 -0.15,-1.425 -0.15,-0.9 -0.525,-1.95 l -4.5,-12.45 h -20.025 l -4.2,11.775 q -0.825,2.25 -0.825,3.6 0,1.875 1.5,2.625 1.575,0.75 5.025,0.75 h 2.7 V 817 Z m 14.25,-20.25 h 19.5 l -5.25,-14.4 q -2.7,-7.35 -4.425,-13.65 -1.05,3.15 -2.1,6 -0.975,2.85 -2.25,6.525 z M 421.67506,817 v -0.75 h 1.575 q 2.7,0 4.125,-1.2 1.425,-1.2 1.425,-4.05 v -41.775 q 0,-2.7 -1.425,-3.825 -1.425,-1.2 -4.125,-1.2 h -1.575 v -0.75 h 22.95 v 0.75 h -1.575 q -2.7,0 -4.125,1.2 -1.35,1.2 -1.35,3.975 v 46.875 h 13.05 q 4.125,0 6.6,-1.2 2.55,-1.2 3.75,-3.9 1.2,-2.775 1.5,-7.575 l 0.225,-2.85 h 0.75 l -0.525,16.275 z m 75.39999,0 v -0.75 h 1.575 q 2.7,0 4.125,-1.2 1.425,-1.2 1.425,-4.05 v -41.775 q 0,-2.7 -1.425,-3.825 -1.425,-1.2 -4.125,-1.2 h -1.575 v -0.75 h 22.95 v 0.75 h -1.575 q -2.7,0 -4.125,1.2 -1.35,1.2 -1.35,3.975 v 46.875 h 13.05 q 4.125,0 6.6,-1.2 2.55,-1.2 3.75,-3.9 1.2,-2.775 1.5,-7.575 l 0.225,-2.85 h 0.75 l -0.525,16.275 z m 75.40001,0 v -0.75 h 1.575 q 2.625,0 4.05,-1.2 1.5,-1.2 1.5,-3.975 v -41.85 q 0,-2.7 -1.425,-3.825 -1.425,-1.2 -4.125,-1.2 h -1.575 v -0.75 h 38.775 l 0.45,13.275 h -0.75 l -0.15,-2.475 q -0.375,-5.625 -2.775,-7.8 -2.4,-2.25 -8.175,-2.25 h -11.475 v 24.375 h 18.525 v 0.75 h -18.525 v 26.925 h 13.5 q 6.075,0 8.55,-2.175 2.55,-2.25 2.925,-7.875 l 0.15,-2.475 h 0.75 l -0.525,13.275 z m 75.32505,0 v -0.75 h 1.575 q 2.625,0 4.05,-1.2 1.5,-1.2 1.5,-3.975 V 769.15 q 0,-2.625 -1.5,-3.75 -1.425,-1.2 -4.05,-1.2 h -1.575 v -0.75 h 21.3 q 9.975,0 14.775,3.6 4.875,3.6 4.875,10.35 0,4.275 -1.725,7.125 -1.725,2.775 -4.425,4.425 -2.625,1.65 -5.55,2.475 l 9.9,15.9 q 2.325,3.6 3.75,5.55 1.5,1.95 2.625,2.7 1.125,0.675 2.325,0.675 h 0.225 V 817 h -1.5 q -4.65,0 -7.35,-0.45 -2.7,-0.525 -4.5,-1.95 -1.725,-1.5 -3.45,-4.425 l -11.025,-18.15 h -4.425 v 19.05 q 0,2.775 1.425,3.975 1.425,1.2 4.125,1.2 h 1.575 V 817 Z m 20.85,-25.725 q 5.775,0 8.25,-3.075 2.55,-3.15 2.55,-10.275 0,-7.35 -2.55,-10.5 -2.55,-3.225 -8.4,-3.225 h -4.875 v 27.075 z M 733.17505,817 v -0.75 h 2.25 q 2.7,0 4.125,-1.125 1.5,-1.2 1.5,-4.05 v -16.8 l -13.725,-26.1 q -1.2,-2.25 -2.325,-3.075 -1.05,-0.9 -2.775,-0.9 h -1.35 v -0.75 h 21.9 v 0.75 h -2.475 q -3.825,0 -3.825,2.175 0,1.5 1.5,4.5 l 6.75,13.2 q 1.5,2.775 2.625,5.175 1.2,2.4 2.1,4.35 0.975,-2.025 2.25,-4.65 1.35,-2.7 2.775,-5.475 l 5.625,-11.325 q 1.8,-3.45 1.8,-5.25 0,-1.5 -1.275,-2.1 -1.2,-0.6 -3.825,-0.6 h -3.6 v -0.75 h 16.8 v 0.75 h -1.95 q -1.8,0 -3.075,1.275 -1.275,1.275 -2.925,4.575 l -12.225,24.3 v 16.725 q 0,2.85 1.425,4.05 1.5,1.125 4.2,1.125 h 2.25 V 817 Z"
         id="text42"
         style="font-size:75px;letter-spacing:28"
         aria-label="GALLERY" />
      <path
         id="rect42"
         d="m 145,782 h 76 c 1.662,0 3,1.338 3,3 0,1.662 -1.338,3 -3,3 h -76 c -1.662,0 -3,-1.338 -3,-3 0,-1.662 1.338,-3 3,-3 z" />
      <path
         id="rect43"
         d="m 803,782 h 76 c 1.662,0 3,1.338 3,3 0,1.662 -1.338,3 -3,3 h -76 c -1.662,0 -3,-1.338 -3,-3 0,-1.662 1.338,-3 3,-3 z" />
    </g>
    <g
       fill="none"
       stroke="#ffffff"
       stroke-width="0.8"
       opacity="0.65"
       id="g44">
      <path
         d="m 231.19112,698.71 q -20.178,0 -33.516,-7.866 -13.338,-7.866 -20.007,-21.888 -6.498,-14.193 -6.498,-33.174 0,-18.468 6.498,-32.49 6.669,-14.193 19.836,-22.059 13.338,-8.037 33.516,-8.037 19.494,0 29.925,5.472 10.431,5.301 10.431,13.509 0,5.814 -4.275,9.234 -4.104,3.42 -13.338,3.762 0,-16.245 -5.472,-23.256 -5.301,-7.011 -18.297,-7.011 -13.167,0 -21.375,6.156 -8.208,6.156 -11.97,19.665 -3.762,13.338 -3.762,35.055 0,21.888 4.104,35.397 4.275,13.338 13.167,19.665 9.063,6.156 23.769,6.156 4.446,0 8.55,-0.684 4.275,-0.684 7.695,-1.539 v -41.04 q 0,-11.799 -13.509,-11.799 h -1.026 v -1.71 h 47.025 v 1.71 h -1.197 q -6.327,0 -8.892,3.078 -2.394,2.907 -2.394,9.405 v 36.081 q -9.063,4.104 -18.468,6.156 -9.234,2.052 -20.52,2.052 z M 310.40913,697 v -1.71 h 3.591 q 5.985,0 9.234,-2.736 3.249,-2.736 3.249,-9.234 v -95.247 q 0,-6.156 -3.249,-8.721 -3.249,-2.736 -9.234,-2.736 h -3.591 v -1.71 h 52.326 v 1.71 h -3.591 q -6.156,0 -9.405,2.736 -3.249,2.736 -3.249,9.234 v 43.776 h 52.326 v -43.776 q 0,-6.498 -3.249,-9.234 -3.078,-2.736 -9.234,-2.736 h -3.591 v -1.71 h 52.326 v 1.71 h -3.591 q -5.985,0 -9.405,2.736 -3.249,2.565 -3.249,8.721 v 95.247 q 0,6.498 3.249,9.234 3.42,2.736 9.405,2.736 h 3.591 V 697 h -52.326 v -1.71 h 3.591 q 6.156,0 9.234,-2.736 3.249,-2.736 3.249,-9.234 v -49.248 h -52.326 v 49.248 q 0,6.498 3.249,9.234 3.249,2.736 9.405,2.736 h 3.591 V 697 Z m 154.62885,0 v -1.71 h 3.591 q 6.156,0 9.405,-2.736 3.249,-2.736 3.249,-9.234 v -95.247 q 0,-6.156 -3.249,-8.721 -3.249,-2.736 -9.405,-2.736 h -3.591 v -1.71 h 52.326 v 1.71 h -3.591 q -6.156,0 -9.405,2.736 -3.078,2.736 -3.078,9.234 v 94.734 q 0,6.498 3.078,9.234 3.249,2.736 9.405,2.736 h 3.591 V 697 Z m 82.29593,0 v -1.71 h 3.591 q 5.985,0 9.234,-2.736 3.42,-2.736 3.42,-9.234 v -95.247 q 0,-6.156 -3.42,-8.721 -3.249,-2.736 -9.234,-2.736 h -3.591 v -1.71 h 47.025 q 45.315,0 45.315,29.412 0,25.479 -34.029,28.044 v 0.342 q 20.349,0.684 29.754,9.063 9.405,8.208 9.405,22.401 0,32.832 -45.315,32.832 z m 46.512,-64.809 q 13.338,0 18.981,-6.156 5.643,-6.327 5.643,-20.862 0,-15.39 -5.814,-21.888 -5.643,-6.669 -19.152,-6.669 h -10.089 v 55.575 z m 4.788,63.099 q 13.509,0 19.152,-7.011 5.814,-7.182 5.814,-23.94 0,-16.416 -5.643,-23.427 -5.643,-7.011 -18.981,-7.011 h -15.561 v 61.389 z m 79.38906,1.71 v -1.71 h 3.591 q 6.156,0 9.405,-2.736 3.249,-2.736 3.249,-9.234 v -95.247 q 0,-6.156 -3.249,-8.721 -3.249,-2.736 -9.405,-2.736 h -3.591 v -1.71 h 52.326 v 1.71 h -3.591 q -6.156,0 -9.405,2.736 -3.078,2.736 -3.078,9.063 V 695.29 h 29.754 q 9.405,0 15.048,-2.736 5.814,-2.736 8.55,-8.892 2.736,-6.327 3.42,-17.271 l 0.513,-6.498 h 1.71 l -1.197,37.107 z m 126.07202,0 v -1.71 h 3.591 q 6.156,0 9.405,-2.736 3.249,-2.736 3.249,-9.234 v -95.247 q 0,-6.156 -3.249,-8.721 -3.249,-2.736 -9.405,-2.736 h -3.591 v -1.71 h 52.326 v 1.71 h -3.591 q -6.156,0 -9.405,2.736 -3.078,2.736 -3.078,9.234 v 94.734 q 0,6.498 3.078,9.234 3.249,2.736 9.405,2.736 h 3.591 V 697 Z"
         id="text43"
         style="font-size:171px;letter-spacing:18;opacity:0.4225"
         aria-label="GHIBLI" />
      <path
         d="m 285.05002,817.75 q -8.85,0 -14.7,-3.45 -5.85,-3.45 -8.775,-9.6 -2.85,-6.225 -2.85,-14.55 0,-8.1 2.85,-14.25 2.925,-6.225 8.7,-9.675 5.85,-3.525 14.7,-3.525 8.55,0 13.125,2.4 4.575,2.325 4.575,5.925 0,2.55 -1.875,4.05 -1.8,1.5 -5.85,1.65 0,-7.125 -2.4,-10.2 -2.325,-3.075 -8.025,-3.075 -5.775,0 -9.375,2.7 -3.6,2.7 -5.25,8.625 -1.65,5.85 -1.65,15.375 0,9.6 1.8,15.525 1.875,5.85 5.775,8.625 3.975,2.7 10.425,2.7 1.95,0 3.75,-0.3 1.875,-0.3 3.375,-0.675 v -18 q 0,-5.175 -5.925,-5.175 h -0.45 v -0.75 h 20.625 v 0.75 h -0.525 q -2.775,0 -3.9,1.35 -1.05,1.275 -1.05,4.125 v 15.825 q -3.975,1.8 -8.1,2.7 -4.05,0.9 -9,0.9 z m 52.225,-0.75 v -0.75 h 2.4 q 2.325,0 3.675,-1.2 1.35,-1.275 2.475,-4.575 l 16.65,-47.025 h 4.8 l 18.225,48.45 q 0.975,2.475 1.95,3.45 1.05,0.9 2.85,0.9 h 0.75 V 817 h -21.75 v -0.75 h 2.4 q 2.55,0 3.675,-0.6 1.125,-0.675 1.125,-2.325 0,-0.6 -0.15,-1.425 -0.15,-0.9 -0.525,-1.95 l -4.5,-12.45 h -20.025 l -4.2,11.775 q -0.825,2.25 -0.825,3.6 0,1.875 1.5,2.625 1.575,0.75 5.025,0.75 h 2.7 V 817 Z m 14.25,-20.25 h 19.5 l -5.25,-14.4 q -2.7,-7.35 -4.425,-13.65 -1.05,3.15 -2.1,6 -0.975,2.85 -2.25,6.525 z M 421.67506,817 v -0.75 h 1.575 q 2.7,0 4.125,-1.2 1.425,-1.2 1.425,-4.05 v -41.775 q 0,-2.7 -1.425,-3.825 -1.425,-1.2 -4.125,-1.2 h -1.575 v -0.75 h 22.95 v 0.75 h -1.575 q -2.7,0 -4.125,1.2 -1.35,1.2 -1.35,3.975 v 46.875 h 13.05 q 4.125,0 6.6,-1.2 2.55,-1.2 3.75,-3.9 1.2,-2.775 1.5,-7.575 l 0.225,-2.85 h 0.75 l -0.525,16.275 z m 75.39999,0 v -0.75 h 1.575 q 2.7,0 4.125,-1.2 1.425,-1.2 1.425,-4.05 v -41.775 q 0,-2.7 -1.425,-3.825 -1.425,-1.2 -4.125,-1.2 h -1.575 v -0.75 h 22.95 v 0.75 h -1.575 q -2.7,0 -4.125,1.2 -1.35,1.2 -1.35,3.975 v 46.875 h 13.05 q 4.125,0 6.6,-1.2 2.55,-1.2 3.75,-3.9 1.2,-2.775 1.5,-7.575 l 0.225,-2.85 h 0.75 l -0.525,16.275 z m 75.40001,0 v -0.75 h 1.575 q 2.625,0 4.05,-1.2 1.5,-1.2 1.5,-3.975 v -41.85 q 0,-2.7 -1.425,-3.825 -1.425,-1.2 -4.125,-1.2 h -1.575 v -0.75 h 38.775 l 0.45,13.275 h -0.75 l -0.15,-2.475 q -0.375,-5.625 -2.775,-7.8 -2.4,-2.25 -8.175,-2.25 h -11.475 v 24.375 h 18.525 v 0.75 h -18.525 v 26.925 h 13.5 q 6.075,0 8.55,-2.175 2.55,-2.25 2.925,-7.875 l 0.15,-2.475 h 0.75 l -0.525,13.275 z m 75.32505,0 v -0.75 h 1.575 q 2.625,0 4.05,-1.2 1.5,-1.2 1.5,-3.975 V 769.15 q 0,-2.625 -1.5,-3.75 -1.425,-1.2 -4.05,-1.2 h -1.575 v -0.75 h 21.3 q 9.975,0 14.775,3.6 4.875,3.6 4.875,10.35 0,4.275 -1.725,7.125 -1.725,2.775 -4.425,4.425 -2.625,1.65 -5.55,2.475 l 9.9,15.9 q 2.325,3.6 3.75,5.55 1.5,1.95 2.625,2.7 1.125,0.675 2.325,0.675 h 0.225 V 817 h -1.5 q -4.65,0 -7.35,-0.45 -2.7,-0.525 -4.5,-1.95 -1.725,-1.5 -3.45,-4.425 l -11.025,-18.15 h -4.425 v 19.05 q 0,2.775 1.425,3.975 1.425,1.2 4.125,1.2 h 1.575 V 817 Z m 20.85,-25.725 q 5.775,0 8.25,-3.075 2.55,-3.15 2.55,-10.275 0,-7.35 -2.55,-10.5 -2.55,-3.225 -8.4,-3.225 h -4.875 v 27.075 z M 733.17505,817 v -0.75 h 2.25 q 2.7,0 4.125,-1.125 1.5,-1.2 1.5,-4.05 v -16.8 l -13.725,-26.1 q -1.2,-2.25 -2.325,-3.075 -1.05,-0.9 -2.775,-0.9 h -1.35 v -0.75 h 21.9 v 0.75 h -2.475 q -3.825,0 -3.825,2.175 0,1.5 1.5,4.5 l 6.75,13.2 q 1.5,2.775 2.625,5.175 1.2,2.4 2.1,4.35 0.975,-2.025 2.25,-4.65 1.35,-2.7 2.775,-5.475 l 5.625,-11.325 q 1.8,-3.45 1.8,-5.25 0,-1.5 -1.275,-2.1 -1.2,-0.6 -3.825,-0.6 h -3.6 v -0.75 h 16.8 v 0.75 h -1.95 q -1.8,0 -3.075,1.275 -1.275,1.275 -2.925,4.575 l -12.225,24.3 v 16.725 q 0,2.85 1.425,4.05 1.5,1.125 4.2,1.125 h 2.25 V 817 Z"
         id="text44"
         style="font-size:75px;letter-spacing:28;opacity:0.4225"
         aria-label="GALLERY" />
    </g>
  </g>
</svg>
